<?xml version="1.0" encoding="utf-8"?>
<!-- Generator: Adobe Illustrator 24.1.2, SVG Export Plug-In . SVG Version: 6.00 Build 0)  -->
<svg version="1.1"
	 id="svg2" xmlns:cc="http://creativecommons.org/ns#" xmlns:dc="http://purl.org/dc/elements/1.1/" xmlns:inkscape="http://www.inkscape.org/namespaces/inkscape" xmlns:rdf="http://www.w3.org/1999/02/22-rdf-syntax-ns#" xmlns:sodipodi="http://sodipodi.sourceforge.net/DTD/sodipodi-0.dtd" xmlns:svg="http://www.w3.org/2000/svg"
	 xmlns="http://www.w3.org/2000/svg" xmlns:xlink="http://www.w3.org/1999/xlink" x="0px" y="0px" viewBox="0 0 500 500"
	 style="enable-background:new 0 0 500 500;" xml:space="preserve">
<style type="text/css">
	.st0{fill:#A6A6A6;}
</style>
<g id="layer1" transform="translate(0,-552.36218)">
	<g id="layer1-9" transform="translate(-549.00515,80.294372)">
	</g>
	<g id="layer1-6" transform="translate(-575.71429,39.999999)">
	</g>
	<g id="layer1-93" transform="matrix(0.99928945,0,0,0.99928945,474.7002,-40.81928)">
	</g>
</g>
<path class="st0" d="M250,0C111.9,0,0,111.9,0,250s111.9,250,250,250s250-111.9,250-250S388.1,0,250,0z M377.3,184.7
	c0.1,2.8,0.2,5.7,0.2,8.5c0,86.8-66,186.8-186.8,186.8c-37.1,0-71.6-10.9-100.6-29.5c5.1,0.6,10.4,0.9,15.7,0.9
	c30.8,0,59-10.5,81.5-28.1c-28.7-0.5-52.9-19.5-61.3-45.6c4,0.8,8.1,1.2,12.4,1.2c6,0,11.8-0.8,17.3-2.3c-30-6-52.7-32.5-52.7-64.3
	c0-0.3,0-0.6,0-0.8c8.9,4.9,19,7.9,29.8,8.2c-17.6-11.8-29.2-31.9-29.2-54.6c0-12,3.2-23.3,8.9-33c32.4,39.7,80.8,65.9,135.3,68.6
	c-1.1-4.8-1.7-9.8-1.7-15c0-35.7,28.5-64.7,63.9-65.6l0,0c0.6,0,1.1,0,1.7,0c18.9,0,36,8,47.9,20.7c15-2.9,29-8.4,41.7-16
	c-4.9,15.3-15.3,28.2-28.9,36.3c13.3-1.6,25.9-5.1,37.7-10.3C401.2,163.9,390.1,175.4,377.3,184.7z"/>
</svg>
